{"title":"Grandma's Boy 2006 UNRATED 1080p WEB DL HEVC x265 10bit AC3 5.1","uid":15861397,"size":1874769096,"categoryP":"video","categoryS":"hd___movies","magnet":"?xt=urn:btih:bcc4a05f9efc28db3e04526492c4732fb0755066&amp;dn=Grandma%27s+Boy+2006+UNRATED+1080p+WEB+DL+HEVC+x265+10bit+AC3+5.1&amp;tr=udp%3A%2F%2Ftracker.leechers-paradise.org%3A6969&amp;tr=udp%3A%2F%2Fzer0day.ch%3A1337&amp;tr=udp%3A%2F%2Fopen.demonii.com%3A1337&amp;tr=udp%3A%2F%2Ftracker.coppersurfer.tk%3A6969&amp;tr=udp%3A%2F%2Fexodus.desync.com%3A6969","seeders":6,"leechers":2,"uploader":"mikeycomicsinc","files":1,"time":1474301725,"description":"A 35 year old video game tester has to move in with his grandma and her two old lady roommates.\r\n\r\nVideo \r\nID : 1 \r\nFormat : HEVC \r\nFormat/Info : High Efficiency Video Coding \r\nFormat profile : Main   @High \r\nCodec ID : V_MPEGH/ISO/HEVC \r\nDuration : 1 h 35 min \r\nBit rate : 2 243 kb/s \r\nWidth : 1 920 pixels \r\nHeight : 816 pixels \r\nDisplay aspect ratio : 2.35:1 \r\nFrame rate mode : Constant \r\nFrame rate : 23.976 (24000/1001) FPS \r\nColor space : YUV \r\nChroma subsampling : 4:2:0 \r\nBit depth : 10 bits \r\nBits/(Pixel*Frame) : 0.060 \r\nStream size : 1.49 GiB (85%) \r\nWriting library : x265 2.0+10-5a0e139e29386ece:[Windows][GCC 6.1.0][64 bit] 10bit: KG7x [x265.ru] \r\nEncoding settings : wpp / ctu=64 / min-cu-size=8 / max-tu-size=32 / tu-intra-depth=1 / tu-inter-depth=1 / me=1 / subme=1 / merange=57 / no-rect / no-amp / max-merge=2 / temporal-mvp / early-skip / rskip / rdpenalty=0 / no-tskip / no-tskip-fast / strong-intra-smoothing / no-lossless / no-cu-lossless / no-constrained-intra / fast-intra / open-gop / no-temporal-layers / interlace=0 / keyint=250 / min-keyint=23 / scenecut=40 / rc-lookahead=15 / lookahead-slices=5 / bframes=4 / bframe-bias=0 / b-adapt=0 / ref=2 / limit-refs=3 / no-limit-modes / weightp / no-weightb / aq-mode=1 / qg-size=32 / aq-strength=1.00 / cbqpoffs=0 / crqpoffs=0 / rd=2 / psy-rd=2.00 / rdoq-level=0 / psy-rdoq=0.00 / no-rd-refine / signhide / deblock=0:0 / sao / no-sao-non-deblock / b-pyramid / cutree / no-intra-refresh / rc=crf / crf=18.0 / qcomp=0.60 / qpmin=0 / qpmax=69 / qpstep=4 / vbv-maxrate=50000 / vbv-bufsize=50000 / crf-max=0.0 / ipratio=1.40 / pbratio=1.30 \r\nLanguage : English \r\nDefault : Yes \r\nForced : No \r\n\r\nAudio \r\nID : 2 \r\nFormat : AC-3 \r\nFormat/Info : Audio Coding 3 \r\nMode extension : CM (complete main) \r\nFormat settings, Endianness : Big \r\nCodec ID : A_AC3 \r\nDuration : 1 h 35 min \r\nBit rate mode : Constant \r\nBit rate : 384 kb/s \r\nChannel(s) : 6 channels \r\nChannel positions : Front: L C R, Side: L R, LFE \r\nSampling rate : 48.0 kHz \r\nFrame rate : 31.250 FPS (1536 spf) \r\nCompression mode : Lossy \r\nStream size : 261 MiB (15%) \r\nLanguage : English \r\nDefault : Yes \r\nForced : No","torrent":{"xt":"urn:btih:bcc4a05f9efc28db3e04526492c4732fb0755066","amp;dn":"Grandma%27s+Boy+2006+UNRATED+1080p+WEB+DL+HEVC+x265+10bit+AC3+5.1","amp;tr":["udp%3A%2F%2Ftracker.leechers-paradise.org%3A6969","udp%3A%2F%2Fzer0day.ch%3A1337","udp%3A%2F%2Fopen.demonii.com%3A1337","udp%3A%2F%2Ftracker.coppersurfer.tk%3A6969","udp%3A%2F%2Fexodus.desync.com%3A6969"],"infoHash":"bcc4a05f9efc28db3e04526492c4732fb0755066","infoHashBuffer":{"type":"Buffer","data":[188,196,160,95,158,252,40,219,62,4,82,100,146,196,115,47,176,117,80,102]},"announce":[],"urlList":[]}}